<svg id="visual" viewBox="0 0 900 600" width="900" height="600" xmlns="http://www.w3.org/2000/svg" xmlns:xlink="http://www.w3.org/1999/xlink" version="1.1"><rect x="0" y="0" width="900" height="600" fill="#143539"></rect><defs><linearGradient id="grad1_0" x1="33.3%" y1="100%" x2="100%" y2="0%"><stop offset="20%" stop-color="#008c9e" stop-opacity="1"></stop><stop offset="80%" stop-color="#008c9e" stop-opacity="1"></stop></linearGradient></defs><defs><linearGradient id="grad1_1" x1="33.3%" y1="100%" x2="100%" y2="0%"><stop offset="20%" stop-color="#008c9e" stop-opacity="1"></stop><stop offset="80%" stop-color="#155f69" stop-opacity="1"></stop></linearGradient></defs><defs><linearGradient id="grad1_2" x1="33.3%" y1="100%" x2="100%" y2="0%"><stop offset="20%" stop-color="#143539" stop-opacity="1"></stop><stop offset="80%" stop-color="#155f69" stop-opacity="1"></stop></linearGradient></defs><defs><linearGradient id="grad2_0" x1="0%" y1="100%" x2="66.7%" y2="0%"><stop offset="20%" stop-color="#008c9e" stop-opacity="1"></stop><stop offset="80%" stop-color="#008c9e" stop-opacity="1"></stop></linearGradient></defs><defs><linearGradient id="grad2_1" x1="0%" y1="100%" x2="66.7%" y2="0%"><stop offset="20%" stop-color="#155f69" stop-opacity="1"></stop><stop offset="80%" stop-color="#008c9e" stop-opacity="1"></stop></linearGradient></defs><defs><linearGradient id="grad2_2" x1="0%" y1="100%" x2="66.7%" y2="0%"><stop offset="20%" stop-color="#155f69" stop-opacity="1"></stop><stop offset="80%" stop-color="#143539" stop-opacity="1"></stop></linearGradient></defs><g transform="translate(900, 600)"><path d="M-351.5 0C-344.3 -65 -337.2 -129.9 -304.4 -175.8C-271.7 -221.6 -213.5 -248.4 -158.5 -274.5C-103.5 -300.6 -51.8 -326.1 0 -351.5L0 0Z" fill="#164950"></path><path d="M-234.4 0C-229.6 -43.3 -224.8 -86.6 -203 -117.2C-181.2 -147.8 -142.3 -165.6 -105.7 -183C-69 -200.4 -34.5 -217.4 0 -234.4L0 0Z" fill="#0f7583"></path><path d="M-117.2 0C-114.8 -21.7 -112.4 -43.3 -101.5 -58.6C-90.6 -73.9 -71.2 -82.8 -52.8 -91.5C-34.5 -100.2 -17.3 -108.7 0 -117.2L0 0Z" fill="#008c9e"></path></g><g transform="translate(0, 0)"><path d="M351.5 0C347.7 70.8 344 141.7 304.4 175.8C264.9 209.9 189.7 207.2 133 230.4C76.3 253.5 38.2 302.5 0 351.5L0 0Z" fill="#164950"></path><path d="M234.4 0C231.8 47.2 229.3 94.5 203 117.2C176.6 139.9 126.5 138.1 88.7 153.6C50.9 169 25.4 201.7 0 234.4L0 0Z" fill="#0f7583"></path><path d="M117.2 0C115.9 23.6 114.7 47.2 101.5 58.6C88.3 70 63.2 69.1 44.3 76.8C25.4 84.5 12.7 100.8 0 117.2L0 0Z" fill="#008c9e"></path></g></svg>